<mxfile host="drawio-plugin" modified="2021-12-04T10:23:35.797Z" agent="5.0 (Macintosh; Intel Mac OS X 11_6_0) AppleWebKit/537.36 (KHTML, like Gecko) Chrome/89.0.4389.114 Safari/537.36" etag="IRkDdKWaMGzLdGy11Ci_" version="14.7.4" type="embed"><diagram id="23iRSUPoRavnBvh4doch" name="Page-1"><mxGraphModel dx="665" dy="463" grid="1" gridSize="10" guides="1" tooltips="1" connect="1" arrows="1" fold="1" page="1" pageScale="1" pageWidth="827" pageHeight="1169" math="0" shadow="0"><root><mxCell id="0"/><mxCell id="1" parent="0"/><mxCell id="2" style="edgeStyle=orthogonalEdgeStyle;rounded=0;orthogonalLoop=1;jettySize=auto;html=1;exitX=0.5;exitY=0;exitDx=0;exitDy=0;entryX=0.5;entryY=1;entryDx=0;entryDy=0;fontSize=12;" parent="1" source="5" target="9" edge="1"><mxGeometry relative="1" as="geometry"/></mxCell><mxCell id="3" style="edgeStyle=orthogonalEdgeStyle;rounded=0;orthogonalLoop=1;jettySize=auto;html=1;exitX=1;exitY=0.75;exitDx=0;exitDy=0;entryX=0.5;entryY=0;entryDx=0;entryDy=0;entryPerimeter=0;fontSize=12;" parent="1" source="5" target="18" edge="1"><mxGeometry relative="1" as="geometry"/></mxCell><mxCell id="4" style="edgeStyle=orthogonalEdgeStyle;rounded=0;orthogonalLoop=1;jettySize=auto;html=1;entryX=0.5;entryY=0;entryDx=0;entryDy=0;entryPerimeter=0;fontSize=9;endArrow=classic;endFill=1;" parent="1" source="5" target="33" edge="1"><mxGeometry relative="1" as="geometry"/></mxCell><mxCell id="5" value="MyCMDB" style="whiteSpace=wrap;html=1;aspect=fixed;" parent="1" vertex="1"><mxGeometry x="280" y="400" width="80" height="80" as="geometry"/></mxCell><mxCell id="6" style="edgeStyle=orthogonalEdgeStyle;rounded=0;orthogonalLoop=1;jettySize=auto;html=1;exitX=0.25;exitY=1;exitDx=0;exitDy=0;entryX=0.25;entryY=0;entryDx=0;entryDy=0;fontSize=12;" parent="1" source="9" target="5" edge="1"><mxGeometry relative="1" as="geometry"/></mxCell><mxCell id="7" style="edgeStyle=orthogonalEdgeStyle;rounded=0;orthogonalLoop=1;jettySize=auto;html=1;exitX=1;exitY=0.75;exitDx=0;exitDy=0;entryX=0.5;entryY=0;entryDx=0;entryDy=0;entryPerimeter=0;fontSize=12;" parent="1" source="9" target="17" edge="1"><mxGeometry relative="1" as="geometry"/></mxCell><mxCell id="8" style="edgeStyle=orthogonalEdgeStyle;rounded=0;orthogonalLoop=1;jettySize=auto;html=1;exitX=0.75;exitY=0;exitDx=0;exitDy=0;entryX=0;entryY=0.5;entryDx=0;entryDy=0;entryPerimeter=0;fontSize=9;endArrow=classic;endFill=1;" parent="1" source="9" target="32" edge="1"><mxGeometry relative="1" as="geometry"/></mxCell><mxCell id="9" value="Compliance Bar" style="whiteSpace=wrap;html=1;aspect=fixed;" parent="1" vertex="1"><mxGeometry x="280" y="190" width="80" height="80" as="geometry"/></mxCell><mxCell id="10" style="edgeStyle=orthogonalEdgeStyle;rounded=0;orthogonalLoop=1;jettySize=auto;html=1;entryX=1;entryY=0.5;entryDx=0;entryDy=0;entryPerimeter=0;fontSize=12;endArrow=classic;endFill=1;" parent="1" source="12" target="16" edge="1"><mxGeometry relative="1" as="geometry"/></mxCell><mxCell id="11" style="edgeStyle=orthogonalEdgeStyle;rounded=0;orthogonalLoop=1;jettySize=auto;html=1;entryX=1;entryY=0.5;entryDx=0;entryDy=0;entryPerimeter=0;fontSize=12;endArrow=classic;endFill=1;" parent="1" source="12" target="14" edge="1"><mxGeometry relative="1" as="geometry"/></mxCell><mxCell id="12" value="Grafana" style="whiteSpace=wrap;html=1;aspect=fixed;" parent="1" vertex="1"><mxGeometry x="520" y="280" width="80" height="80" as="geometry"/></mxCell><mxCell id="13" style="edgeStyle=orthogonalEdgeStyle;rounded=0;orthogonalLoop=1;jettySize=auto;html=1;entryX=1;entryY=0.375;entryDx=0;entryDy=0;entryPerimeter=0;fontSize=12;endArrow=classic;endFill=1;" parent="1" source="14" target="9" edge="1"><mxGeometry relative="1" as="geometry"/></mxCell><mxCell id="14" value="&lt;font style=&quot;font-size: 9px&quot;&gt;Prometheus&lt;/font&gt;" style="shape=cylinder3;whiteSpace=wrap;html=1;boundedLbl=1;backgroundOutline=1;size=15;" parent="1" vertex="1"><mxGeometry x="410" y="190" width="50" height="60" as="geometry"/></mxCell><mxCell id="15" style="edgeStyle=orthogonalEdgeStyle;rounded=0;orthogonalLoop=1;jettySize=auto;html=1;entryX=1.025;entryY=0.375;entryDx=0;entryDy=0;entryPerimeter=0;fontSize=12;endArrow=classic;endFill=1;" parent="1" source="16" target="5" edge="1"><mxGeometry relative="1" as="geometry"/></mxCell><mxCell id="16" value="&lt;font style=&quot;font-size: 9px&quot;&gt;Prometheus&lt;/font&gt;" style="shape=cylinder3;whiteSpace=wrap;html=1;boundedLbl=1;backgroundOutline=1;size=15;" parent="1" vertex="1"><mxGeometry x="410" y="400" width="50" height="60" as="geometry"/></mxCell><mxCell id="17" value="&lt;span&gt;postgres&lt;/span&gt;" style="shape=cylinder3;whiteSpace=wrap;html=1;boundedLbl=1;backgroundOutline=1;size=15;fontSize=9;" parent="1" vertex="1"><mxGeometry x="350" y="280" width="50" height="60" as="geometry"/></mxCell><mxCell id="18" value="postgres" style="shape=cylinder3;whiteSpace=wrap;html=1;boundedLbl=1;backgroundOutline=1;size=15;fontSize=9;" parent="1" vertex="1"><mxGeometry x="350" y="490" width="50" height="60" as="geometry"/></mxCell><mxCell id="19" style="edgeStyle=orthogonalEdgeStyle;rounded=0;orthogonalLoop=1;jettySize=auto;html=1;entryX=0.5;entryY=1;entryDx=0;entryDy=0;fontSize=12;" parent="1" source="21" target="22" edge="1"><mxGeometry relative="1" as="geometry"/></mxCell><mxCell id="20" style="edgeStyle=orthogonalEdgeStyle;rounded=0;orthogonalLoop=1;jettySize=auto;html=1;exitX=0;exitY=0.5;exitDx=0;exitDy=0;exitPerimeter=0;entryX=0.5;entryY=0;entryDx=0;entryDy=0;fontSize=12;endArrow=none;endFill=0;" parent="1" source="21" target="9" edge="1"><mxGeometry relative="1" as="geometry"/></mxCell><mxCell id="21" value="" style="verticalLabelPosition=bottom;html=1;verticalAlign=top;align=center;strokeColor=none;fillColor=#000000;shape=mxgraph.azure.queue_generic;pointerEvents=1;fontSize=9;rotation=-90;" parent="1" vertex="1"><mxGeometry x="295" y="140" width="50" height="15" as="geometry"/></mxCell><mxCell id="22" value="&lt;font style=&quot;font-size: 12px&quot;&gt;Notifications Manager&lt;br&gt;&lt;/font&gt;" style="whiteSpace=wrap;html=1;aspect=fixed;fontSize=9;" parent="1" vertex="1"><mxGeometry x="280" y="10" width="80" height="80" as="geometry"/></mxCell><mxCell id="23" style="edgeStyle=orthogonalEdgeStyle;rounded=0;orthogonalLoop=1;jettySize=auto;html=1;exitX=1;exitY=0.5;exitDx=0;exitDy=0;entryX=0;entryY=0.5;entryDx=0;entryDy=0;fontSize=12;endArrow=classic;endFill=1;" parent="1" source="24" target="9" edge="1"><mxGeometry relative="1" as="geometry"/></mxCell><mxCell id="24" value="Compliance Bar UI" style="whiteSpace=wrap;html=1;aspect=fixed;fontSize=12;fillColor=#FFFFFF;" parent="1" vertex="1"><mxGeometry x="100" y="190" width="80" height="80" as="geometry"/></mxCell><mxCell id="25" value="" style="shape=umlActor;verticalLabelPosition=bottom;verticalAlign=top;html=1;outlineConnect=0;fontSize=12;fillColor=#FFFFFF;" parent="1" vertex="1"><mxGeometry x="41" y="200" width="30" height="60" as="geometry"/></mxCell><mxCell id="26" value="&lt;font style=&quot;font-size: 9px&quot;&gt;mTLS&lt;/font&gt;" style="text;html=1;strokeColor=none;fillColor=none;align=center;verticalAlign=middle;whiteSpace=wrap;rounded=0;fontSize=12;" parent="1" vertex="1"><mxGeometry x="365" y="190" width="60" height="30" as="geometry"/></mxCell><mxCell id="27" value="&lt;font style=&quot;font-size: 9px&quot;&gt;mTLS&lt;/font&gt;" style="text;html=1;strokeColor=none;fillColor=none;align=center;verticalAlign=middle;whiteSpace=wrap;rounded=0;fontSize=12;" parent="1" vertex="1"><mxGeometry x="360" y="400" width="60" height="30" as="geometry"/></mxCell><mxCell id="28" value="&lt;font style=&quot;font-size: 9px&quot;&gt;mTLS&lt;/font&gt;" style="text;html=1;strokeColor=none;fillColor=none;align=center;verticalAlign=middle;whiteSpace=wrap;rounded=0;fontSize=12;" parent="1" vertex="1"><mxGeometry x="305" y="350" width="60" height="30" as="geometry"/></mxCell><mxCell id="29" value="&lt;font style=&quot;font-size: 9px&quot;&gt;flyway&lt;/font&gt;" style="text;html=1;strokeColor=none;fillColor=none;align=center;verticalAlign=middle;whiteSpace=wrap;rounded=0;fontSize=12;" parent="1" vertex="1"><mxGeometry x="395" y="305" width="60" height="30" as="geometry"/></mxCell><mxCell id="30" value="&lt;font style=&quot;font-size: 9px&quot;&gt;flyway&lt;/font&gt;" style="text;html=1;strokeColor=none;fillColor=none;align=center;verticalAlign=middle;whiteSpace=wrap;rounded=0;fontSize=12;" parent="1" vertex="1"><mxGeometry x="395" y="520" width="60" height="30" as="geometry"/></mxCell><mxCell id="31" value="&lt;font style=&quot;font-size: 9px&quot;&gt;load: jMeter&lt;br&gt;&amp;nbsp;security: Burp&lt;br&gt;&lt;/font&gt;" style="text;html=1;strokeColor=none;fillColor=none;align=center;verticalAlign=middle;whiteSpace=wrap;rounded=0;fontSize=12;" parent="1" vertex="1"><mxGeometry x="150" y="415" width="70" height="30" as="geometry"/></mxCell><mxCell id="32" value="Hazelcast" style="shape=cylinder3;whiteSpace=wrap;html=1;boundedLbl=1;backgroundOutline=1;size=15;fontSize=9;" parent="1" vertex="1"><mxGeometry x="440" y="110" width="50" height="60" as="geometry"/></mxCell><mxCell id="33" value="Hazelcast" style="shape=cylinder3;whiteSpace=wrap;html=1;boundedLbl=1;backgroundOutline=1;size=15;fontSize=9;" parent="1" vertex="1"><mxGeometry x="295" y="560" width="50" height="60" as="geometry"/></mxCell><mxCell id="34" value="&lt;font style=&quot;font-size: 9px&quot;&gt;TLS&lt;/font&gt;" style="text;html=1;strokeColor=none;fillColor=none;align=center;verticalAlign=middle;whiteSpace=wrap;rounded=0;fontSize=12;" parent="1" vertex="1"><mxGeometry x="357" y="450" width="60" height="30" as="geometry"/></mxCell><mxCell id="35" value="&lt;font style=&quot;font-size: 9px&quot;&gt;TLS&lt;/font&gt;" style="text;html=1;strokeColor=none;fillColor=none;align=center;verticalAlign=middle;whiteSpace=wrap;rounded=0;fontSize=12;" parent="1" vertex="1"><mxGeometry x="357" y="250" width="60" height="30" as="geometry"/></mxCell><mxCell id="36" value="&lt;font style=&quot;font-size: 9px&quot; color=&quot;#ff3333&quot;&gt;http&lt;/font&gt;" style="text;html=1;strokeColor=none;fillColor=none;align=center;verticalAlign=middle;whiteSpace=wrap;rounded=0;fontSize=12;" vertex="1" parent="1"><mxGeometry x="365" y="132.5" width="60" height="30" as="geometry"/></mxCell><mxCell id="37" value="&lt;font style=&quot;font-size: 9px&quot; color=&quot;#ff3333&quot;&gt;http&lt;/font&gt;" style="text;html=1;strokeColor=none;fillColor=none;align=center;verticalAlign=middle;whiteSpace=wrap;rounded=0;fontSize=12;" vertex="1" parent="1"><mxGeometry x="280" y="520" width="60" height="30" as="geometry"/></mxCell></root></mxGraphModel></diagram></mxfile>